<?xml version="1.0" standalone="no"?>
<!DOCTYPE svg PUBLIC "-//W3C//DTD SVG 20010904//EN"
 "http://www.w3.org/TR/2001/REC-SVG-20010904/DTD/svg10.dtd">
<svg version="1.0" xmlns="http://www.w3.org/2000/svg"
 width="512.000000pt" height="512.000000pt" viewBox="0 0 512.000000 512.000000"
 preserveAspectRatio="xMidYMid meet">
<metadata>
Created by potrace 1.11, written by Peter Selinger 2001-2013
</metadata>
<g transform="translate(0.000000,512.000000) scale(0.100000,-0.100000)"
fill="#000000" stroke="none">
<path d="M1659 4841 c-106 -34 -203 -121 -256 -230 -28 -55 -28 -58 -31 -283
l-3 -227 -587 -3 c-641 -3 -617 -1 -690 -63 -18 -15 -45 -48 -60 -74 l-27 -46
-3 -1004 c-3 -1107 -5 -1056 59 -1134 17 -21 48 -47 70 -57 l39 -20 0 -608 c0
-668 0 -672 60 -744 16 -20 53 -48 82 -62 l52 -26 2196 0 2196 0 52 26 c29 14
66 42 82 62 60 72 60 76 60 744 l0 608 39 20 c22 10 53 36 70 57 64 78 62 27
59 1134 l-3 1004 -27 46 c-15 26 -42 59 -60 74 -73 62 -49 60 -690 63 l-588 3
0 208 c0 180 -3 216 -19 264 -45 130 -151 233 -280 271 -48 14 -154 16 -895
15 -780 0 -845 -1 -897 -18z m1777 -175 c59 -27 116 -90 132 -145 7 -23 12
-113 12 -230 l0 -191 -85 0 -85 0 0 185 c0 184 0 186 -25 210 l-24 25 -801 0
-801 0 -24 -25 c-25 -24 -25 -26 -25 -210 l0 -185 -85 0 -85 0 0 191 c0 117 5
207 12 230 16 55 73 118 132 145 l51 24 825 0 825 0 51 -24z m-196 -441 l0
-125 -680 0 -680 0 0 125 0 125 680 0 680 0 0 -125z m1655 -309 c18 -8 38 -23
44 -34 8 -15 11 -317 11 -997 l0 -976 -24 -24 c-13 -13 -39 -26 -57 -30 -81
-14 -1921 -265 -1944 -265 -25 0 -25 1 -25 78 0 42 -5 94 -10 114 -16 57 -69
119 -129 150 -51 27 -59 28 -201 28 -142 0 -150 -1 -201 -28 -60 -31 -113 -93
-129 -150 -5 -20 -10 -72 -10 -114 0 -74 -1 -78 -22 -78 -22 0 -1874 253
-1947 265 -18 4 -44 17 -57 30 l-24 24 0 976 c0 679 3 982 11 996 27 51 -89
48 2377 49 1964 0 2308 -2 2337 -14z m-2190 -2151 l25 -24 0 -280 c0 -297 -3
-320 -47 -340 -32 -15 -218 -14 -246 1 -46 24 -46 29 -47 331 l0 288 25 24
c23 24 30 25 145 25 115 0 122 -1 145 -25z m-1415 -225 c481 -66 887 -123 903
-126 l27 -6 0 -127 c0 -154 14 -206 75 -266 60 -60 112 -75 265 -75 153 0 205
15 265 75 61 60 75 112 75 266 l0 128 33 6 c17 3 426 59 907 126 481 66 890
122 908 125 l32 6 0 -586 c0 -620 -1 -633 -45 -650 -22 -8 -4328 -8 -4350 0
-44 17 -45 30 -45 649 l0 587 38 -6 c20 -4 431 -60 912 -126z"/>
</g>
</svg>
